<svg width="25" height="25" viewBox="0 0 25 25" fill="none" xmlns="http://www.w3.org/2000/svg">
<path d="M12.5 0C5.5969 0 0 4.89685 0 10.9375C0 14.3899 1.83203 17.4633 4.6875 19.468V25L10.1633 21.6773C10.9211 21.8024 11.7008 21.875 12.5 21.875C19.4039 21.875 25 16.9781 25 10.9375C25 4.89685 19.4039 0 12.5 0ZM6.25 12.5C5.38672 12.5 4.6875 11.8008 4.6875 10.9375C4.6875 10.0742 5.38672 9.375 6.25 9.375C7.1125 9.375 7.8125 10.0742 7.8125 10.9375C7.8125 11.8008 7.11328 12.5 6.25 12.5ZM12.5 12.5C11.6367 12.5 10.9375 11.8008 10.9375 10.9375C10.9375 10.0742 11.6367 9.375 12.5 9.375C13.3625 9.375 14.0625 10.0742 14.0625 10.9375C14.0625 11.8008 13.3633 12.5 12.5 12.5ZM18.75 12.5C17.8867 12.5 17.1875 11.8008 17.1875 10.9375C17.1875 10.0742 17.8867 9.375 18.75 9.375C19.6133 9.375 20.3125 10.0742 20.3125 10.9375C20.3125 11.8008 19.6133 12.5 18.75 12.5Z" fill="white"/>
</svg>
