<svg width="25" height="25" viewBox="0 0 25 25" fill="none" xmlns="http://www.w3.org/2000/svg">
<path d="M18.3594 1.46484C17.0028 1.46484 15.759 1.89473 14.6627 2.74258C13.6117 3.55542 12.912 4.59072 12.5 5.34355C12.088 4.59067 11.3883 3.55542 10.3373 2.74258C9.24097 1.89473 7.99722 1.46484 6.64062 1.46484C2.85488 1.46484 0 4.56138 0 8.66768C0 13.1039 3.56167 16.1391 8.95356 20.734C9.86919 21.5143 10.907 22.3988 11.9857 23.3421C12.1279 23.4666 12.3105 23.5352 12.5 23.5352C12.6895 23.5352 12.8721 23.4666 13.0143 23.3421C14.0931 22.3987 15.1309 21.5143 16.047 20.7335C21.4383 16.1391 25 13.1039 25 8.66768C25 4.56138 22.1451 1.46484 18.3594 1.46484Z" fill="white"/>
</svg>
