<svg width="37" height="38" viewBox="0 0 37 38" fill="none" xmlns="http://www.w3.org/2000/svg">
<g clip-path="url(#clip0)">
<mask id="path-1-inside-1" fill="white">
<path d="M19.2227 36.0538C19.2227 36.8521 18.5757 37.4991 17.7773 37.4991H1.44531C0.647003 37.4991 0 36.8521 0 36.0538V16.1567C0 15.7277 0.190544 15.3209 0.519974 15.0465L17.5747 0.834169C18.1107 0.387308 18.8893 0.387308 19.4253 0.834169L36.48 15.0465C37.0932 15.5574 37.1759 16.4687 36.6649 17.0821C36.154 17.6952 35.2425 17.7779 34.6293 17.267L18.5 3.82585L2.89062 16.8337V34.6085H17.7773C18.5757 34.6085 19.2227 35.2555 19.2227 36.0538V36.0538ZM34.7121 32.1438C33.1262 34.0557 30.7581 35.8062 27.6732 37.3469C27.2664 37.5499 26.7882 37.5499 26.3815 37.3469C23.2966 35.8062 20.9285 34.0557 19.3429 32.1438C14.6355 26.469 17.9134 20.2059 22.7637 20.2059C24.6965 20.2059 26.1184 20.9971 27.0273 21.7398C27.9363 20.9971 29.3582 20.2059 31.291 20.2059C36.1506 20.2059 39.4076 26.4828 34.7121 32.1438ZM31.291 23.0965C29.2916 23.0965 28.242 24.5954 28.2319 24.6104C27.6317 25.5157 26.3662 25.4604 25.8265 24.6163C25.7379 24.4918 24.7002 23.0965 22.7637 23.0965C19.6483 23.0965 16.9725 29.1002 27.0273 34.4287C37.0821 29.1002 34.4069 23.0965 31.291 23.0965V23.0965Z"/>
</mask>
<path d="M0.519974 15.0465L19.7197 38.098L19.7256 38.0931L0.519974 15.0465ZM17.5747 0.834169L36.7803 23.8807L36.7838 23.8778L17.5747 0.834169ZM19.4253 0.834169L0.216226 23.8778L0.219732 23.8807L19.4253 0.834169ZM36.48 15.0465L17.2744 38.0931L17.2745 38.0931L36.48 15.0465ZM36.6649 17.0821L59.7116 36.2876L59.7159 36.2824L36.6649 17.0821ZM34.6293 17.267L15.4238 40.3136L15.4238 40.3136L34.6293 17.267ZM18.5 3.82585L37.7055 -19.2208L18.5 -35.2254L-0.705532 -19.2208L18.5 3.82585ZM2.89062 16.8337L-16.3149 -6.21297L-27.1094 2.78242V16.8337H2.89062ZM2.89062 34.6085H-27.1094V64.6085H2.89062V34.6085ZM34.7121 32.1438L57.8025 51.2967L57.8026 51.2965L34.7121 32.1438ZM27.6732 37.3469L41.0673 64.1909L41.0778 64.1856L27.6732 37.3469ZM26.3815 37.3469L12.9769 64.1857L12.9874 64.1909L26.3815 37.3469ZM19.3429 32.1438L42.435 12.993L42.4327 12.9902L19.3429 32.1438ZM27.0273 21.7398L8.04554 44.9711L27.0273 60.4807L46.0092 44.9711L27.0273 21.7398ZM28.2319 24.6104L3.41534 7.75396L3.32051 7.89356L3.22726 8.03423L28.2319 24.6104ZM25.8265 24.6163L51.1008 8.45432L50.6982 7.8247L50.2647 7.21591L25.8265 24.6163ZM27.0273 34.4287L12.9797 60.9365L27.0273 68.3809L41.075 60.9365L27.0273 34.4287ZM-10.7773 36.0538C-10.7773 20.2835 2.00711 7.49909 17.7773 7.49909V67.4991C35.1442 67.4991 49.2227 53.4206 49.2227 36.0538H-10.7773ZM17.7773 7.49909H1.44531V67.4991H17.7773V7.49909ZM1.44531 7.49909C17.2155 7.49909 30 20.2835 30 36.0538H-30C-30 53.4206 -15.9215 67.4991 1.44531 67.4991V7.49909ZM30 36.0538V16.1567H-30V36.0538H30ZM30 16.1567C30 24.6278 26.238 32.6688 19.7197 38.098L-18.6797 -8.00499C-25.857 -2.02705 -30 6.82752 -30 16.1567H30ZM19.7256 38.0931L36.7803 23.8807L-1.63095 -22.2124L-18.6856 -8.00007L19.7256 38.0931ZM36.7838 23.8778C26.1932 32.7061 10.8068 32.7061 0.216226 23.8778L38.6345 -22.2095C26.9717 -31.9315 10.0283 -31.9315 -1.63445 -22.2095L36.7838 23.8778ZM0.219732 23.8807L17.2744 38.0931L55.6856 -8.00007L38.6309 -22.2124L0.219732 23.8807ZM17.2745 38.0931C5.15231 27.9913 3.53007 9.98798 13.6139 -2.11824L59.7159 36.2824C70.8217 22.9494 69.034 3.12357 55.6856 -8.00013L17.2745 38.0931ZM13.6183 -2.12345C23.718 -14.2431 41.7242 -15.8719 53.8349 -5.77966L15.4238 40.3136C28.7607 51.4277 48.5899 49.6336 59.7116 36.2876L13.6183 -2.12345ZM53.8349 -5.77966L37.7055 -19.2208L-0.705532 26.8725L15.4238 40.3136L53.8349 -5.77966ZM-0.705532 -19.2208L-16.3149 -6.21297L22.0962 39.8803L37.7055 26.8725L-0.705532 -19.2208ZM-27.1094 16.8337V34.6085H32.8906V16.8337H-27.1094ZM2.89062 64.6085H17.7773V4.60847H2.89062V64.6085ZM17.7773 64.6085C2.00711 64.6085 -10.7773 51.824 -10.7773 36.0538H49.2227C49.2227 18.6869 35.1442 4.60847 17.7773 4.60847V64.6085ZM11.6216 12.991C12.6233 11.7833 13.4921 11.0778 13.922 10.7601C14.3576 10.438 14.5206 10.3824 14.2686 10.5082L41.0778 64.1856C46.5369 61.4591 52.7363 57.4044 57.8025 51.2967L11.6216 12.991ZM14.2792 10.503C22.306 6.4979 31.7487 6.4979 39.7755 10.503L12.9874 64.1909C21.8278 68.6019 32.2269 68.6019 41.0673 64.1909L14.2792 10.503ZM39.7861 10.5082C39.5341 10.3824 39.6972 10.4381 40.1331 10.7603C40.5632 11.0782 41.4326 11.7843 42.435 12.993L-3.74922 51.2946C1.31756 57.4042 7.51819 61.4593 12.9769 64.1856L39.7861 10.5082ZM42.4327 12.9902C46.0391 17.3377 48.927 25.4311 45.6229 34.4085C42.5758 42.6879 34.1871 50.2059 22.7637 50.2059V-9.79413C6.48999 -9.79413 -5.9628 0.85537 -10.6846 13.6851C-15.6633 27.2127 -12.0607 41.2751 -3.74688 51.2974L42.4327 12.9902ZM22.7637 50.2059C15.9631 50.2059 10.8963 47.3004 8.04554 44.9711L46.0092 -1.49143C41.3405 -5.3061 33.4299 -9.79413 22.7637 -9.79413V50.2059ZM46.0092 44.9711C43.1584 47.3004 38.0916 50.2059 31.291 50.2059V-9.79413C20.6248 -9.79413 12.7142 -5.3061 8.04554 -1.49143L46.0092 44.9711ZM31.291 50.2059C19.84 50.2059 11.4525 42.6553 8.41807 34.3786C5.13658 25.4281 8.0053 17.3508 11.6215 12.9911L57.8026 51.2965C66.1144 41.2758 69.7024 27.2295 64.7514 13.7253C60.0474 0.894946 47.6016 -9.79413 31.291 -9.79413V50.2059ZM31.291 -6.9035C13.6884 -6.9035 4.81016 5.70045 3.41534 7.75396L53.0484 41.4669C51.721 43.421 49.7385 45.8532 46.7556 48.0405C43.5119 50.4191 38.2012 53.0965 31.291 53.0965V-6.9035ZM3.22726 8.03423C14.821 -9.45455 40.1635 -8.6494 51.1008 8.45432L0.552212 40.7784C12.5689 59.5701 40.4424 60.486 53.2365 41.1866L3.22726 8.03423ZM50.2647 7.21591C48.751 5.09005 39.8951 -6.9035 22.7637 -6.9035V53.0965C16.1267 53.0965 10.9206 50.6175 7.60522 48.2605C4.50772 46.0583 2.53979 43.634 1.3883 42.0168L50.2647 7.21591ZM22.7637 -6.9035C0.600816 -6.9035 -11.444 12.8425 -9.91823 29.5008C-8.36493 46.4593 4.18482 56.2757 12.9797 60.9365L41.075 7.92083C41.0757 7.92121 41.4393 8.11255 42.0336 8.56628C42.6255 9.01815 43.5356 9.79877 44.5472 10.9899C46.5596 13.3592 49.2562 17.7449 49.8317 24.028C50.9605 36.3523 41.8112 53.0965 22.7637 53.0965V-6.9035ZM41.075 60.9365C49.8694 56.2759 62.4192 46.4599 63.973 29.5017C65.4996 12.8407 53.4523 -6.9035 31.291 -6.9035V53.0965C12.2456 53.0965 3.09384 36.3542 4.22333 24.0271C4.79904 17.7439 7.49581 13.3585 9.50793 10.9894C10.5194 9.79846 11.4295 9.01793 12.0213 8.56614C12.6156 8.11248 12.9791 7.92118 12.9797 7.92083L41.075 60.9365Z" fill="url(#paint0_radial)" mask="url(#path-1-inside-1)"/>
</g>
<defs>
<radialGradient id="paint0_radial" cx="0" cy="0" r="1" gradientUnits="userSpaceOnUse" gradientTransform="translate(18.3966 39.5662) rotate(-90) scale(39.0672 100.002)">
<stop stop-color="#BFE9FF"/>
<stop offset="0.901042" stop-color="#FF6E7F"/>
</radialGradient>
<clipPath id="clip0">
<rect width="37" height="37" fill="white" transform="translate(0 0.5)"/>
</clipPath>
</defs>
</svg>
