<svg width="42" height="42" viewBox="0 0 42 42" fill="none" xmlns="http://www.w3.org/2000/svg">
<path d="M38.92 1H3.08C3.00572 1 2.96858 1 2.93718 1.00099C1.88189 1.03415 1.03415 1.88189 1.00099 2.93718C1 2.96858 1 3.00572 1 3.08V38.92C1 38.9943 1 39.0314 1.00099 39.0628C1.03415 40.1181 1.88189 40.9659 2.93718 40.999C2.96858 41 3.00572 41 3.08 41H38.92C38.9943 41 39.0314 41 39.0628 40.999C40.1181 40.9659 40.9659 40.1181 40.999 39.0628C41 39.0314 41 38.9943 41 38.92V3.08C41 3.00572 41 2.96858 40.999 2.93718C40.9659 1.88189 40.1181 1.03415 39.0628 1.00099C39.0314 1 38.9943 1 38.92 1Z" stroke="url(#paint0_linear)" stroke-width="2"/>
<path d="M7.36363 10.0909H34.0824C34.9741 10.0909 35.697 10.8138 35.697 11.7055V11.7055M7.36363 10.0909V27.3201C7.36363 31.1566 11.5059 33.5638 14.8392 31.6643L21.5303 27.8513M7.36363 10.0909L21.5303 27.8513M21.5303 27.8513L28.2214 31.6643C31.5547 33.5638 35.697 31.1566 35.697 27.3201V11.7055M21.5303 27.8513L35.697 11.7055" stroke="url(#paint1_linear)" stroke-width="2"/>
<defs>
<linearGradient id="paint0_linear" x1="21" y1="1" x2="21" y2="41" gradientUnits="userSpaceOnUse">
<stop stop-color="#FF6E7F"/>
<stop offset="1" stop-color="#BFE9FF"/>
</linearGradient>
<linearGradient id="paint1_linear" x1="21.5303" y1="10.0909" x2="21.5303" y2="35.9242" gradientUnits="userSpaceOnUse">
<stop stop-color="#FF6E7F"/>
<stop offset="1" stop-color="#BFE9FF"/>
</linearGradient>
</defs>
</svg>
